<svg id="레이어_1" data-name="레이어 1" xmlns="http://www.w3.org/2000/svg" viewBox="0 0 283.87 38"><defs><style>.cls-1{fill:#231815;}</style></defs><title>무제-1</title><polygon class="cls-1" points="26.56 37.92 3 12.8 3 37.92 0 37.92 0 0 3 0 3 11.62 32.13 11.62 32.13 14.62 8.35 14.62 30.27 37.92 26.56 37.92"/><path class="cls-1" d="M577.24,402.71v-26.3h32.14v26.3Zm3-3h26.13v-20.3H580.25Z" transform="translate(-541.01 -364.79)"/><rect class="cls-1" x="72.71" y="11.67" width="3" height="26.25"/><path class="cls-1" d="M664.24,402.71v-3h32.13v3Zm0-11.62v-3h32.13v3Zm0-11.68v-3h32.13v3Z" transform="translate(-541.01 -364.79)"/><polygon class="cls-1" points="160.07 37.92 160.07 34.92 189.21 34.92 189.21 26.3 160.07 26.3 160.07 11.62 192.21 11.62 192.21 14.62 163.07 14.62 163.07 23.3 192.21 23.3 192.21 37.92 160.07 37.92"/><path class="cls-1" d="M768.51,402.71v-26.3h32.13v26.3Zm3-3h26.13v-20.3H771.51Z" transform="translate(-541.01 -364.79)"/><polygon class="cls-1" points="262.76 37.92 262.76 11.62 283.87 11.62 283.87 14.62 265.76 14.62 265.76 37.92 262.76 37.92"/><polygon class="cls-1" points="208.01 38 208.01 14.62 195.33 14.62 195.33 11.62 224.38 11.62 224.38 14.62 211.01 14.62 211.01 38 208.01 38"/><polygon class="cls-1" points="79.15 37.92 79.15 11.62 82.17 11.62 82.17 14.62 82.16 16.04 82.16 37.92 79.15 37.92"/><rect class="cls-1" x="82.17" y="11.62" width="20.45" height="3"/><rect class="cls-1" x="102.62" y="11.62" width="3" height="3"/><rect class="cls-1" x="102.62" y="14.62" width="3" height="13.32"/><rect class="cls-1" x="89.32" y="21.6" width="3" height="13.32"/><rect class="cls-1" x="89.32" y="34.92" width="26.29" height="3"/><rect class="cls-1" x="115.52" y="11.62" width="3" height="26.3"/></svg>